<svg xmlns="http://www.w3.org/2000/svg" width="1400" height="265" viewBox="0 0 1400 265">
<defs><linearGradient id="g" x1="0" x2="1"><stop stop-color="#F8FBFF"/><stop offset="1" stop-color="#F0FBF8"/></linearGradient></defs>
<rect x="1" y="1" width="1398" height="263" rx="24" fill="url(#g)" stroke="#D7E7F5"/>
<text x="40" y="44" font-family="Arial,sans-serif" font-size="13" font-weight="800" letter-spacing="2.2" fill="#6A87A0">CORE CAPABILITIES</text>
<text x="40" y="78" font-family="Georgia,serif" font-size="28" font-weight="700" fill="#10254A">Protect how software is designed, built, released, and operated.</text>
<g font-family="Arial,sans-serif" text-anchor="middle">
<g transform="translate(62 112)"><circle cx="70" cy="44" r="34" fill="#E8F3FF" stroke="#9BC1E8"/><path d="M55 31h30v26H55zM61 38h18M61 45h18M61 52h10" fill="none" stroke="#0B6CF2" stroke-width="2.6"/><text x="70" y="103" font-size="14" font-weight="800" fill="#173A67">PROGRAM</text><text x="70" y="123" font-size="12.5" fill="#65798C">Assessment &amp; roadmap</text></g>
<g transform="translate(280 112)"><circle cx="70" cy="44" r="34" fill="#E8F3FF" stroke="#9BC1E8"/><path d="M54 52l22-22 10 10-22 22H54zM72 34l10 10" fill="none" stroke="#0B6CF2" stroke-width="2.6"/><text x="70" y="103" font-size="14" font-weight="800" fill="#173A67">DESIGN</text><text x="70" y="123" font-size="12.5" fill="#65798C">Architecture &amp; threats</text></g>
<g transform="translate(498 112)"><circle cx="70" cy="44" r="34" fill="#E8F3FF" stroke="#9BC1E8"/><circle cx="56" cy="44" r="6" fill="none" stroke="#0B6CF2" stroke-width="2.6"/><circle cx="84" cy="33" r="6" fill="none" stroke="#0B6CF2" stroke-width="2.6"/><circle cx="84" cy="55" r="6" fill="none" stroke="#0B6CF2" stroke-width="2.6"/><path d="M62 44h13M74 44l5-8M74 44l5 8" stroke="#0B6CF2" stroke-width="2.6" fill="none"/><text x="70" y="103" font-size="14" font-weight="800" fill="#173A67">DELIVERY</text><text x="70" y="123" font-size="12.5" fill="#65798C">DevSecOps &amp; CI/CD</text></g>
<g transform="translate(716 112)"><circle cx="70" cy="44" r="34" fill="#E8F8F5" stroke="#83CFC1"/><path d="M50 54h40c10 0 11-15 2-17-1-11-19-15-25-5-10-4-18 8-15 15-7 2-6 7-2 7z" fill="none" stroke="#1A8E77" stroke-width="2.6"/><text x="70" y="103" font-size="14" font-weight="800" fill="#173A67">CLOUD</text><text x="70" y="123" font-size="12.5" fill="#65798C">AWS &amp; Kubernetes</text></g>
<g transform="translate(934 112)"><circle cx="70" cy="44" r="34" fill="#E8F8F5" stroke="#83CFC1"/><path d="M70 22l22 9v13c0 14-9 22-22 26-13-4-22-12-22-26V31zM59 44l7 7 15-17" fill="none" stroke="#1A8E77" stroke-width="2.6"/><text x="70" y="103" font-size="14" font-weight="800" fill="#173A67">TRUST</text><text x="70" y="123" font-size="12.5" fill="#65798C">Supply chain &amp; release</text></g>
<g transform="translate(1152 112)"><circle cx="70" cy="44" r="34" fill="#E8F8F5" stroke="#83CFC1"/><circle cx="60" cy="37" r="7" fill="none" stroke="#1A8E77" stroke-width="2.6"/><circle cx="80" cy="37" r="7" fill="none" stroke="#1A8E77" stroke-width="2.6"/><path d="M45 65c2-10 7-15 15-15s13 5 15 15M68 65c2-10 5-15 12-15s12 5 15 15" fill="none" stroke="#1A8E77" stroke-width="2.6"/><text x="70" y="103" font-size="14" font-weight="800" fill="#173A67">LEADERSHIP</text><text x="70" y="123" font-size="12.5" fill="#65798C">Fractional direction</text></g>
</g></svg>
